<svg width="42" height="45" viewBox="0 0 42 45" fill="none" xmlns="http://www.w3.org/2000/svg">
<path d="M19.624 27.3926C19.6488 25.9206 19.8158 24.7578 20.125 23.9043C20.4342 23.0508 21.0651 22.1045 22.0176 21.0654L24.4482 18.5605C25.4873 17.3854 26.0068 16.1237 26.0068 14.7754C26.0068 13.4766 25.6667 12.4622 24.9863 11.7324C24.306 10.9902 23.3164 10.6191 22.0176 10.6191C20.7559 10.6191 19.7415 10.9531 18.9746 11.6211C18.2077 12.2891 17.8242 13.1859 17.8242 14.3115H14.3916C14.4163 12.3076 15.1276 10.6934 16.5254 9.46875C17.9355 8.23177 19.7663 7.61328 22.0176 7.61328C24.3555 7.61328 26.1738 8.24414 27.4727 9.50586C28.7839 10.7552 29.4395 12.4746 29.4395 14.6641C29.4395 16.8288 28.4375 18.9626 26.4336 21.0654L24.4111 23.0693C23.5081 24.0713 23.0566 25.5124 23.0566 27.3926H19.624ZM19.4756 33.2744C19.4756 32.7178 19.6426 32.2539 19.9766 31.8828C20.3229 31.4993 20.8301 31.3076 21.498 31.3076C22.166 31.3076 22.6732 31.4993 23.0195 31.8828C23.3659 32.2539 23.5391 32.7178 23.5391 33.2744C23.5391 33.8311 23.3659 34.2949 23.0195 34.666C22.6732 35.0247 22.166 35.2041 21.498 35.2041C20.8301 35.2041 20.3229 35.0247 19.9766 34.666C19.6426 34.2949 19.4756 33.8311 19.4756 33.2744Z" fill="black"/>
<circle cx="21" cy="21" r="20.5" stroke="black"/>
</svg>
