<svg width="181" height="104" viewBox="0 0 181 104" fill="none" xmlns="http://www.w3.org/2000/svg">
<path d="M40.3999 46.5722C36.0122 46.3526 31.6151 46.3983 27.2329 46.7088C21.7016 35.6655 15.5244 24.7974 11.4825 13.0812C13.9453 12.431 16.5223 12.3397 19.0249 12.814C21.5275 13.2884 23.8924 14.3163 25.9464 15.8226C27.6218 17.0298 29.7976 14.6339 28.1035 13.4018C25.3827 11.3518 22.1977 10.0055 18.8315 9.48245C15.4652 8.95936 12.0219 9.27573 8.80732 10.4034C8.39903 10.5572 8.06423 10.8601 7.87044 11.2509C7.67665 11.6418 7.63829 12.0917 7.76308 12.5097C11.6789 24.5872 17.4044 35.7057 22.9434 47.0335C16.6072 47.7273 10.3259 48.8534 4.14342 50.4041C1.00183 51.1721 2.61708 55.983 5.75619 55.1719C12.2045 53.5393 18.8009 52.5606 25.4454 52.251C27.9113 57.3181 30.0572 62.5349 31.8704 67.8705C32.8763 71 33.7221 74.1787 34.4046 77.3942C35.224 81.1286 35.2292 85.1171 36.4035 88.7187C37.349 91.6429 41.4409 90.5871 41.527 87.733C41.6245 81.3299 38.631 74.0255 36.5247 68.0342C34.5988 62.6153 32.3965 57.2986 29.9265 52.1051C32.1865 52.07 34.4418 52.1041 36.6915 52.1904C36.86 52.3739 37.0521 52.5342 37.2629 52.6669C39.7168 54.2005 41.8416 53.0162 43.26 50.8107C44.6784 48.6051 42.3829 46.6739 40.3999 46.5722Z" fill="#1D1D1B"/>
<path d="M60.2029 64.2187C59.5625 58.6955 58.7993 53.188 57.9132 47.6962C56.1842 37.0124 53.72 26.6039 50.9855 16.1507C50.2999 13.5396 46.5208 14.9314 47.0648 17.4815C49.2995 28.1017 50.8911 38.9489 52.2788 49.7042C52.9095 54.6582 53.4343 59.624 53.8533 64.6016C54.3244 70.0827 54.1619 75.8076 55.0511 81.2042C55.1007 82.0646 55.49 82.8701 56.1334 83.4434C56.7768 84.0168 57.6217 84.3111 58.4821 84.2615C59.3425 84.212 60.1479 83.8227 60.7213 83.1793C61.2947 82.5358 61.5889 81.691 61.5394 80.8306C61.829 75.3661 60.8253 69.6307 60.2029 64.2187Z" fill="#1D1D1B"/>
<path d="M94.124 53.8648C90.2768 51.3754 84.9456 51.7515 80.8716 53.4192C76.1899 55.3292 70.9052 60.2612 68.4502 65.7554C67.1593 65.9765 65.8846 66.1795 64.5572 66.3681C62.1936 66.7028 62.3183 70.2182 64.7738 70.1286C65.5912 70.0815 66.4087 70.0344 67.2176 69.9878C67.0165 71.4417 67.1017 72.9208 67.4683 74.342C70.1815 84.4253 87.4337 82.2145 94.1812 78.5451C96.9689 77.0291 95.0219 73.2043 92.3859 73.1575C89.1618 73.0928 86.0383 73.5748 82.8256 73.708C80.9411 73.8165 76.9212 74.3243 75.2441 73.2381C73.8988 72.3658 73.7381 70.9247 74.2311 69.2904C77.143 68.881 80.0302 68.3435 82.8994 67.643C87.0536 66.6181 93.0364 65.7124 95.8015 62.0047C97.909 59.1724 97.0209 55.7442 94.124 53.8648ZM83.6071 62.2407C81.5443 62.8516 79.4522 63.4038 77.3577 63.9129C78.6164 62.2827 80.0787 60.8203 81.7088 59.5613C83.2644 58.5393 89.1617 55.9982 90.7721 58.1761C92.201 60.2004 84.7033 61.9358 83.6086 62.2665L83.6071 62.2407Z" fill="#1D1D1B"/>
<path d="M179.619 89.6319C168.244 83.8548 155.937 84.6844 143.51 84.6316C139.46 84.6145 129.756 85.674 126.893 81.8329C124.921 79.2182 127.965 76.1593 129.772 74.3976C132.044 72.1774 134.233 70.2987 135.995 67.6158C137.463 65.3814 134.596 62.0586 132.165 63.1742C130.231 64.0712 128.268 64.9267 126.313 65.7645C123.945 61.3596 117.686 62.1172 113.444 63.8723C107.652 66.2866 102.057 69.2766 98.9237 74.8444C98.595 75.4966 98.4901 76.2388 98.625 76.9566C98.76 77.6744 99.1273 78.3278 99.6705 78.816C104.348 82.5354 109.368 80.5023 114.317 78.2834C116.362 77.3627 118.405 76.4162 120.44 75.4702C119.688 76.9741 119.308 78.6361 119.329 80.3172C119.411 86.5288 124.941 90.0523 130.5 91.0963C146.212 94.0594 162.524 89.6148 178.272 93.5255C180.554 94.1711 181.745 90.7095 179.619 89.6319ZM107.65 74.057C108.818 73.0143 110.101 72.109 111.475 71.3588C113.198 70.3963 118.383 67.1795 120.87 68.0982C119.674 68.6074 118.476 69.0995 117.282 69.6431C115.454 70.439 111.078 73.1603 107.65 74.057Z" fill="#1D1D1B"/>
</svg>
