<svg id="Слой_1" data-name="Слой 1" xmlns="http://www.w3.org/2000/svg" viewBox="0 0 31.85 31.83"><defs><style>.cls-1{fill:#1e1e1c;}</style></defs><path class="cls-1" d="M314.79,390.54a2.29,2.29,0,1,1,2.31-2.27,2.31,2.31,0,0,1-2.31,2.27Z" transform="translate(-290.56 -380.59)"/><path class="cls-1" d="M306.07,412.41c-1.62,0-7,0-8.72-.47a8.22,8.22,0,0,1-6.48-7.1c-.41-2.53-.5-14.75.3-17.57a8.3,8.3,0,0,1,7.1-6.33,62.53,62.53,0,0,1,7.83-.35c2.66,0,5.64.06,7.59.17a9,9,0,0,1,5.93,2.43,8.63,8.63,0,0,1,2.6,5.56c.24,2.56.38,14-.35,16.81a8.32,8.32,0,0,1-7.19,6.5A75.18,75.18,0,0,1,306.07,412.41Zm.55-28.17c-3.26,0-6.19.09-7.46.23a4.85,4.85,0,0,0-4.58,4.31,106.18,106.18,0,0,0-.11,15.51,4.6,4.6,0,0,0,3.52,4,45.88,45.88,0,0,0,8.22.45c3.12,0,6.38-.1,7.59-.24a4.86,4.86,0,0,0,4.59-4.33,110.57,110.57,0,0,0,.19-15.11,4.77,4.77,0,0,0-4.28-4.56A68.9,68.9,0,0,0,306.62,384.24Z" transform="translate(-290.56 -380.59)"/><path class="cls-1" d="M306.42,404.88a8.3,8.3,0,0,1-8.3-8.38,8.44,8.44,0,0,1,8.41-8.36,8.3,8.3,0,0,1,8.33,8.38A8.46,8.46,0,0,1,306.42,404.88Zm.1-13.09a4.76,4.76,0,0,0-4.75,4.67,4.66,4.66,0,0,0,4.63,4.76,4.78,4.78,0,0,0,4.79-4.68,4.64,4.64,0,0,0-4.62-4.75l-.05-.43Z" transform="translate(-290.56 -380.59)"/></svg>