<svg width="26" height="16" viewBox="0 0 26 16" fill="none" xmlns="http://www.w3.org/2000/svg">
<path fill-rule="evenodd" clip-rule="evenodd" d="M12.3855 15.285H13.8986C13.8986 15.285 14.3557 15.2348 14.589 14.9833C14.8038 14.7523 14.7969 14.3186 14.7969 14.3186C14.7969 14.3186 14.7674 12.2883 15.7097 11.9893C16.6386 11.6948 17.8315 13.9516 19.0958 14.8193C20.0519 15.4761 20.7784 15.3321 20.7784 15.3321L24.159 15.285C24.159 15.285 25.9275 15.1761 25.089 13.7856C25.0203 13.6719 24.6006 12.757 22.5754 10.8772C20.4557 8.90971 20.7396 9.22794 23.293 5.82464C24.8481 3.752 25.4698 2.48663 25.2756 1.94467C25.0904 1.42849 23.9467 1.56492 23.9467 1.56492L20.1402 1.58864C20.1402 1.58864 19.8581 1.55015 19.6488 1.67524C19.4443 1.79793 19.3127 2.08386 19.3127 2.08386C19.3127 2.08386 18.7102 3.68773 17.9068 5.05174C16.2118 7.92992 15.5341 8.08182 15.2571 7.90311C14.6127 7.48659 14.7736 6.22982 14.7736 5.33698C14.7736 2.5478 15.1966 1.38484 13.9498 1.0838C13.536 0.983789 13.2316 0.917806 12.1734 0.907152C10.8153 0.893062 9.6657 0.911276 9.0148 1.2302C8.58179 1.44224 8.24775 1.91477 8.45119 1.94192C8.70276 1.9756 9.27255 2.09554 9.57463 2.50691C9.96469 3.03752 9.95094 4.22935 9.95094 4.22935C9.95094 4.22935 10.175 7.51271 9.42754 7.92064C8.91446 8.20038 8.21063 7.62921 6.69954 5.01806C5.92527 3.68052 5.3407 2.20208 5.3407 2.20208C5.3407 2.20208 5.22797 1.92577 5.02693 1.77799C4.78293 1.59895 4.44201 1.5419 4.44201 1.5419L0.824954 1.56561C0.824954 1.56561 0.281965 1.58073 0.0826401 1.81683C-0.0946904 2.02681 0.0685498 2.4612 0.0685498 2.4612C0.0685498 2.4612 2.90034 9.08635 6.10672 12.425C9.04677 15.4861 12.3855 15.285 12.3855 15.285Z" fill="#0B0A0A"/>
</svg>
